<svg width="182" height="192" viewBox="0 0 182 192" fill="none" xmlns="http://www.w3.org/2000/svg">
<path d="M182 9.6V28.8C182 65.9136 151.98 96 114.947 96H105.368V105.6H153.263V172.8C153.263 183.408 144.69 192 134.105 192H57.4737C46.8889 192 38.3158 183.408 38.3158 172.8V105.6H86.2105V76.8C86.2105 39.6864 116.231 9.6 153.263 9.6H182ZM33.5263 0C57.7515 0 79.17 12.0096 92.1878 30.4224C82.4173 43.296 76.6316 59.376 76.6316 76.8V86.4H71.8421C32.1661 86.4 0 54.1632 0 14.4V0H33.5263Z" fill="#1C7118"/>
</svg>
